<mxfile host="65bd71144e">
    <diagram id="Z86SHZ22xJm4C7N7x-0L" name="Page-1">
        <mxGraphModel dx="1705" dy="2042" grid="1" gridSize="10" guides="1" tooltips="1" connect="1" arrows="1" fold="1" page="1" pageScale="1" pageWidth="827" pageHeight="1169" math="0" shadow="0">
            <root>
                <mxCell id="0"/>
                <mxCell id="1" parent="0"/>
                <mxCell id="14" value="" style="rounded=1;whiteSpace=wrap;html=1;labelBackgroundColor=none;strokeColor=none;strokeWidth=2;fillColor=default;" parent="1" vertex="1">
                    <mxGeometry x="120" y="-40" width="660" height="680" as="geometry"/>
                </mxCell>
                <mxCell id="5" value="&lt;b style=&quot;&quot;&gt;&amp;nbsp; Cryptellation System&lt;br&gt;&amp;nbsp;&amp;nbsp;&lt;/b&gt;&lt;span style=&quot;&quot;&gt;[Software System]&lt;/span&gt;" style="rounded=0;whiteSpace=wrap;html=1;fillColor=none;dashed=1;strokeWidth=2;strokeColor=#B3B3B3;align=left;verticalAlign=bottom;" parent="1" vertex="1">
                    <mxGeometry x="160" y="110" width="580" height="330" as="geometry"/>
                </mxCell>
                <mxCell id="13" value="&amp;nbsp; &lt;b&gt;Candlesticks&lt;/b&gt;&lt;br&gt;&amp;nbsp; [Microservice]" style="rounded=0;whiteSpace=wrap;html=1;labelBackgroundColor=none;strokeColor=#DAE8FC;strokeWidth=2;fillColor=none;verticalAlign=bottom;align=left;" parent="1" vertex="1">
                    <mxGeometry x="180" y="260" width="540" height="140" as="geometry"/>
                </mxCell>
                <mxCell id="2" value="&lt;b&gt;Candlesticks&lt;/b&gt;&lt;br&gt;[Golang Service]&lt;br&gt;Provides candlesticks to services and users." style="rounded=1;whiteSpace=wrap;html=1;fillColor=#dae8fc;strokeColor=#6c8ebf;" parent="1" vertex="1">
                    <mxGeometry x="200" y="280" width="200" height="80" as="geometry"/>
                </mxCell>
                <mxCell id="16" value="&lt;font face=&quot;helvetica&quot;&gt;&lt;br&gt;&lt;/font&gt;" style="endArrow=none;dashed=1;html=1;entryX=0;entryY=0.5;entryDx=0;entryDy=0;edgeStyle=orthogonalEdgeStyle;startArrow=classic;startFill=1;exitX=0.5;exitY=0;exitDx=0;exitDy=0;" edge="1" parent="1" source="2" target="15">
                    <mxGeometry x="0.5484" y="10" width="50" height="50" relative="1" as="geometry">
                        <mxPoint x="310" y="290" as="sourcePoint"/>
                        <mxPoint x="310" y="50" as="targetPoint"/>
                        <mxPoint as="offset"/>
                    </mxGeometry>
                </mxCell>
                <mxCell id="3" value="&lt;b&gt;Database&lt;/b&gt;&lt;br&gt;[SQL Database]&lt;br&gt;Stores candlesticks for further reuse" style="shape=cylinder3;whiteSpace=wrap;html=1;boundedLbl=1;backgroundOutline=1;size=7;fillColor=#dae8fc;strokeColor=#6c8ebf;" parent="1" vertex="1">
                    <mxGeometry x="530" y="280" width="160" height="80" as="geometry"/>
                </mxCell>
                <mxCell id="4" value="&lt;b style=&quot;color: rgb(51 , 51 , 51)&quot;&gt;Exchanges&lt;/b&gt;&lt;br style=&quot;color: rgb(51 , 51 , 51)&quot;&gt;&lt;span style=&quot;color: rgb(51 , 51 , 51)&quot;&gt;[Internet Service]&lt;/span&gt;&lt;br style=&quot;color: rgb(51 , 51 , 51)&quot;&gt;&lt;span style=&quot;color: rgb(51 , 51 , 51)&quot;&gt;API that exchanges provides to get informations.&lt;/span&gt;" style="rounded=1;whiteSpace=wrap;html=1;fillColor=#f5f5f5;fontColor=#333333;strokeColor=#666666;" parent="1" vertex="1">
                    <mxGeometry x="200" y="520" width="200" height="80" as="geometry"/>
                </mxCell>
                <mxCell id="7" value="&lt;span style=&quot;color: rgb(0 , 0 , 0) ; font-family: &amp;#34;helvetica&amp;#34; ; font-size: 11px ; font-style: normal ; font-weight: 400 ; letter-spacing: normal ; text-align: center ; text-indent: 0px ; text-transform: none ; word-spacing: 0px ; background-color: rgb(255 , 255 , 255) ; display: inline ; float: none&quot;&gt;Get&amp;nbsp;candlesticks&lt;/span&gt;&lt;br style=&quot;color: rgb(0 , 0 , 0) ; font-family: &amp;#34;helvetica&amp;#34; ; font-size: 11px ; font-style: normal ; font-weight: 400 ; letter-spacing: normal ; text-align: center ; text-indent: 0px ; text-transform: none ; word-spacing: 0px&quot;&gt;&lt;span style=&quot;color: rgb(0 , 0 , 0) ; font-family: &amp;#34;helvetica&amp;#34; ; font-size: 11px ; font-style: normal ; font-weight: 400 ; letter-spacing: normal ; text-align: center ; text-indent: 0px ; text-transform: none ; word-spacing: 0px ; background-color: rgb(255 , 255 , 255) ; display: inline ; float: none&quot;&gt;[JSON/HTTPS]&lt;/span&gt;" style="endArrow=none;dashed=1;html=1;exitX=0.75;exitY=0;exitDx=0;exitDy=0;entryX=0.75;entryY=1;entryDx=0;entryDy=0;edgeStyle=orthogonalEdgeStyle;startArrow=classic;startFill=1;" parent="1" source="4" target="2" edge="1">
                    <mxGeometry x="-0.3846" width="50" height="50" relative="1" as="geometry">
                        <mxPoint x="390" y="430" as="sourcePoint"/>
                        <mxPoint x="440" y="380" as="targetPoint"/>
                        <mxPoint as="offset"/>
                    </mxGeometry>
                </mxCell>
                <mxCell id="10" value="&lt;font face=&quot;helvetica&quot;&gt;Reads from&lt;br&gt;Writes to&lt;br&gt;[SQL]&lt;br&gt;&lt;/font&gt;" style="endArrow=none;dashed=1;html=1;exitX=0;exitY=0.5;exitDx=0;exitDy=0;entryX=1;entryY=0.5;entryDx=0;entryDy=0;edgeStyle=orthogonalEdgeStyle;startArrow=classic;startFill=1;exitPerimeter=0;" parent="1" source="3" target="2" edge="1">
                    <mxGeometry x="0.0769" width="50" height="50" relative="1" as="geometry">
                        <mxPoint x="360" y="500" as="sourcePoint"/>
                        <mxPoint x="360" y="370" as="targetPoint"/>
                        <mxPoint as="offset"/>
                    </mxGeometry>
                </mxCell>
                <mxCell id="11" value="&lt;b style=&quot;color: rgb(0 , 0 , 0) ; font-family: &amp;#34;helvetica&amp;#34; ; font-size: 12px ; font-style: normal ; letter-spacing: normal ; text-align: center ; text-indent: 0px ; text-transform: none ; word-spacing: 0px&quot;&gt;User&lt;/b&gt;&lt;br style=&quot;color: rgb(0 , 0 , 0) ; font-family: &amp;#34;helvetica&amp;#34; ; font-size: 12px ; font-style: normal ; font-weight: 400 ; letter-spacing: normal ; text-align: center ; text-indent: 0px ; text-transform: none ; word-spacing: 0px&quot;&gt;&lt;span style=&quot;color: rgb(0 , 0 , 0) ; font-family: &amp;#34;helvetica&amp;#34; ; font-size: 12px ; font-style: normal ; font-weight: 400 ; letter-spacing: normal ; text-align: center ; text-indent: 0px ; text-transform: none ; word-spacing: 0px ; display: inline ; float: none&quot;&gt;[Application]&lt;/span&gt;&lt;br style=&quot;color: rgb(0 , 0 , 0) ; font-family: &amp;#34;helvetica&amp;#34; ; font-size: 12px ; font-style: normal ; font-weight: 400 ; letter-spacing: normal ; text-align: center ; text-indent: 0px ; text-transform: none ; word-spacing: 0px&quot;&gt;&lt;span style=&quot;color: rgb(0 , 0 , 0) ; font-family: &amp;#34;helvetica&amp;#34; ; font-size: 12px ; font-style: normal ; font-weight: 400 ; letter-spacing: normal ; text-align: center ; text-indent: 0px ; text-transform: none ; word-spacing: 0px ; display: inline ; float: none&quot;&gt;Application that a user will run to execute its strategies.&lt;/span&gt;" style="rounded=1;whiteSpace=wrap;html=1;strokeColor=#d6b656;strokeWidth=1;fillColor=#fff2cc;" parent="1" vertex="1">
                    <mxGeometry x="200" y="-10" width="200" height="80" as="geometry"/>
                </mxCell>
                <mxCell id="12" value="&lt;font face=&quot;helvetica&quot;&gt;Get candlesticks&lt;br&gt;[gRPC]&lt;br&gt;&lt;/font&gt;" style="endArrow=none;dashed=1;html=1;entryX=0.5;entryY=1;entryDx=0;entryDy=0;edgeStyle=orthogonalEdgeStyle;startArrow=classic;startFill=1;" parent="1" target="11" edge="1">
                    <mxGeometry x="-0.5" width="50" height="50" relative="1" as="geometry">
                        <mxPoint x="300" y="280" as="sourcePoint"/>
                        <mxPoint x="410" y="330" as="targetPoint"/>
                        <mxPoint as="offset"/>
                    </mxGeometry>
                </mxCell>
                <mxCell id="15" value="&lt;b&gt;Backtests&lt;/b&gt;&lt;br&gt;[Service]&lt;br&gt;Provide an entire environment for users to execute backtests." style="rounded=1;whiteSpace=wrap;html=1;fillColor=#dae8fc;strokeColor=#6c8ebf;" vertex="1" parent="1">
                    <mxGeometry x="510" y="140" width="200" height="80" as="geometry"/>
                </mxCell>
            </root>
        </mxGraphModel>
    </diagram>
</mxfile>
